<mxfile host="Electron" agent="Mozilla/5.0 (Windows NT 10.0; Win64; x64) AppleWebKit/537.36 (KHTML, like Gecko) draw.io/25.0.2 Chrome/128.0.6613.186 Electron/32.2.5 Safari/537.36" version="25.0.2">
  <diagram name="Page-1" id="blMihIvzc4jHoA9Q8nSy">
    <mxGraphModel dx="10013" dy="4567" grid="1" gridSize="10" guides="1" tooltips="1" connect="1" arrows="1" fold="1" page="0" pageScale="1" pageWidth="850" pageHeight="1100" math="0" shadow="0">
      <root>
        <mxCell id="0" />
        <mxCell id="1" parent="0" />
        <mxCell id="9fyok54g0r0PkPnmByOA-4" value="" style="edgeStyle=orthogonalEdgeStyle;rounded=0;orthogonalLoop=1;jettySize=auto;html=1;fontSize=16;" edge="1" parent="1" source="9fyok54g0r0PkPnmByOA-1" target="9fyok54g0r0PkPnmByOA-3">
          <mxGeometry relative="1" as="geometry" />
        </mxCell>
        <mxCell id="9fyok54g0r0PkPnmByOA-1" value="เริ่ม" style="strokeWidth=2;html=1;shape=mxgraph.flowchart.terminator;whiteSpace=wrap;fontSize=16;" vertex="1" parent="1">
          <mxGeometry x="300" y="40" width="200" height="80" as="geometry" />
        </mxCell>
        <mxCell id="9fyok54g0r0PkPnmByOA-6" value="" style="edgeStyle=orthogonalEdgeStyle;rounded=0;orthogonalLoop=1;jettySize=auto;html=1;fontSize=16;" edge="1" parent="1" source="9fyok54g0r0PkPnmByOA-3" target="9fyok54g0r0PkPnmByOA-5">
          <mxGeometry relative="1" as="geometry" />
        </mxCell>
        <mxCell id="9fyok54g0r0PkPnmByOA-3" value="กำหนดตัวแปร char&amp;nbsp; hex เพื่อเก็บเลขฐาน 16&amp;nbsp;" style="whiteSpace=wrap;html=1;fontSize=16;strokeWidth=2;" vertex="1" parent="1">
          <mxGeometry x="222.5" y="170" width="355" height="90" as="geometry" />
        </mxCell>
        <mxCell id="9fyok54g0r0PkPnmByOA-18" value="" style="edgeStyle=orthogonalEdgeStyle;rounded=0;orthogonalLoop=1;jettySize=auto;html=1;fontSize=16;" edge="1" parent="1" source="9fyok54g0r0PkPnmByOA-5" target="9fyok54g0r0PkPnmByOA-17">
          <mxGeometry relative="1" as="geometry" />
        </mxCell>
        <mxCell id="9fyok54g0r0PkPnmByOA-5" value="รับค่าเลขฐาน 16 จากผู้ใช้งานเก็บไว่ใน hex" style="shape=parallelogram;perimeter=parallelogramPerimeter;whiteSpace=wrap;html=1;fixedSize=1;fontSize=16;strokeWidth=2;" vertex="1" parent="1">
          <mxGeometry x="205" y="320" width="390" height="100" as="geometry" />
        </mxCell>
        <mxCell id="9fyok54g0r0PkPnmByOA-26" value="" style="edgeStyle=orthogonalEdgeStyle;rounded=0;orthogonalLoop=1;jettySize=auto;html=1;fontSize=16;" edge="1" parent="1" source="9fyok54g0r0PkPnmByOA-17" target="9fyok54g0r0PkPnmByOA-25">
          <mxGeometry relative="1" as="geometry" />
        </mxCell>
        <mxCell id="9fyok54g0r0PkPnmByOA-17" value="ตั้งตัวแปร int len =&amp;nbsp;strlen( hex )&amp;nbsp;&lt;div&gt;เพื่อนับจำนวนข้อความ&lt;/div&gt;" style="whiteSpace=wrap;html=1;fontSize=16;strokeWidth=2;" vertex="1" parent="1">
          <mxGeometry x="260" y="490" width="280" height="120" as="geometry" />
        </mxCell>
        <mxCell id="9fyok54g0r0PkPnmByOA-188" value="" style="edgeStyle=orthogonalEdgeStyle;rounded=0;orthogonalLoop=1;jettySize=auto;html=1;" edge="1" parent="1" source="9fyok54g0r0PkPnmByOA-25" target="9fyok54g0r0PkPnmByOA-187">
          <mxGeometry relative="1" as="geometry" />
        </mxCell>
        <mxCell id="9fyok54g0r0PkPnmByOA-25" value="ตั้งตัวแปร int i = 1" style="whiteSpace=wrap;html=1;fontSize=16;strokeWidth=2;" vertex="1" parent="1">
          <mxGeometry x="260" y="690" width="280" height="120" as="geometry" />
        </mxCell>
        <mxCell id="9fyok54g0r0PkPnmByOA-30" value="" style="edgeStyle=orthogonalEdgeStyle;rounded=0;orthogonalLoop=1;jettySize=auto;html=1;fontSize=16;" edge="1" parent="1" source="9fyok54g0r0PkPnmByOA-27" target="9fyok54g0r0PkPnmByOA-29">
          <mxGeometry relative="1" as="geometry" />
        </mxCell>
        <mxCell id="9fyok54g0r0PkPnmByOA-27" value="i &amp;lt; len" style="rhombus;whiteSpace=wrap;html=1;fontSize=16;" vertex="1" parent="1">
          <mxGeometry x="230" y="950" width="340" height="140" as="geometry" />
        </mxCell>
        <mxCell id="9fyok54g0r0PkPnmByOA-32" value="" style="edgeStyle=orthogonalEdgeStyle;rounded=0;orthogonalLoop=1;jettySize=auto;html=1;" edge="1" parent="1" source="9fyok54g0r0PkPnmByOA-29" target="9fyok54g0r0PkPnmByOA-35">
          <mxGeometry relative="1" as="geometry">
            <mxPoint x="400" y="1370" as="targetPoint" />
          </mxGeometry>
        </mxCell>
        <mxCell id="9fyok54g0r0PkPnmByOA-45" style="edgeStyle=orthogonalEdgeStyle;rounded=0;orthogonalLoop=1;jettySize=auto;html=1;entryX=0.5;entryY=0;entryDx=0;entryDy=0;" edge="1" parent="1" source="9fyok54g0r0PkPnmByOA-29" target="9fyok54g0r0PkPnmByOA-42">
          <mxGeometry relative="1" as="geometry" />
        </mxCell>
        <mxCell id="9fyok54g0r0PkPnmByOA-29" value="hex[ i ] = &#39;0&#39;" style="rhombus;whiteSpace=wrap;html=1;fontSize=16;" vertex="1" parent="1">
          <mxGeometry x="230" y="1170" width="340" height="140" as="geometry" />
        </mxCell>
        <mxCell id="9fyok54g0r0PkPnmByOA-41" value="" style="edgeStyle=orthogonalEdgeStyle;rounded=0;orthogonalLoop=1;jettySize=auto;html=1;" edge="1" parent="1" source="9fyok54g0r0PkPnmByOA-35" target="9fyok54g0r0PkPnmByOA-40">
          <mxGeometry relative="1" as="geometry" />
        </mxCell>
        <mxCell id="9fyok54g0r0PkPnmByOA-35" value="แสดงเลข 0000" style="shape=parallelogram;perimeter=parallelogramPerimeter;whiteSpace=wrap;html=1;fixedSize=1;" vertex="1" parent="1">
          <mxGeometry x="275" y="1350" width="250" height="80" as="geometry" />
        </mxCell>
        <mxCell id="9fyok54g0r0PkPnmByOA-134" style="edgeStyle=orthogonalEdgeStyle;rounded=0;orthogonalLoop=1;jettySize=auto;html=1;entryX=0.5;entryY=0;entryDx=0;entryDy=0;" edge="1" parent="1" source="9fyok54g0r0PkPnmByOA-40" target="9fyok54g0r0PkPnmByOA-132">
          <mxGeometry relative="1" as="geometry" />
        </mxCell>
        <mxCell id="9fyok54g0r0PkPnmByOA-40" value="ออกจาก case" style="whiteSpace=wrap;html=1;" vertex="1" parent="1">
          <mxGeometry x="290" y="1500" width="220" height="110" as="geometry" />
        </mxCell>
        <mxCell id="9fyok54g0r0PkPnmByOA-48" value="" style="edgeStyle=orthogonalEdgeStyle;rounded=0;orthogonalLoop=1;jettySize=auto;html=1;" edge="1" parent="1" source="9fyok54g0r0PkPnmByOA-42" target="9fyok54g0r0PkPnmByOA-46">
          <mxGeometry relative="1" as="geometry" />
        </mxCell>
        <mxCell id="9fyok54g0r0PkPnmByOA-115" style="edgeStyle=orthogonalEdgeStyle;rounded=0;orthogonalLoop=1;jettySize=auto;html=1;entryX=0.5;entryY=0;entryDx=0;entryDy=0;" edge="1" parent="1" source="9fyok54g0r0PkPnmByOA-42" target="9fyok54g0r0PkPnmByOA-51">
          <mxGeometry relative="1" as="geometry" />
        </mxCell>
        <mxCell id="9fyok54g0r0PkPnmByOA-42" value="hex[ i ] = &#39;1&#39;" style="rhombus;whiteSpace=wrap;html=1;fontSize=16;" vertex="1" parent="1">
          <mxGeometry x="650" y="1260" width="340" height="140" as="geometry" />
        </mxCell>
        <mxCell id="9fyok54g0r0PkPnmByOA-49" value="" style="edgeStyle=orthogonalEdgeStyle;rounded=0;orthogonalLoop=1;jettySize=auto;html=1;" edge="1" parent="1" source="9fyok54g0r0PkPnmByOA-46" target="9fyok54g0r0PkPnmByOA-47">
          <mxGeometry relative="1" as="geometry" />
        </mxCell>
        <mxCell id="9fyok54g0r0PkPnmByOA-46" value="แสดงเลข 0001" style="shape=parallelogram;perimeter=parallelogramPerimeter;whiteSpace=wrap;html=1;fixedSize=1;" vertex="1" parent="1">
          <mxGeometry x="695" y="1450" width="250" height="80" as="geometry" />
        </mxCell>
        <mxCell id="9fyok54g0r0PkPnmByOA-137" style="edgeStyle=orthogonalEdgeStyle;rounded=0;orthogonalLoop=1;jettySize=auto;html=1;entryX=0.5;entryY=0;entryDx=0;entryDy=0;" edge="1" parent="1" source="9fyok54g0r0PkPnmByOA-47" target="9fyok54g0r0PkPnmByOA-136">
          <mxGeometry relative="1" as="geometry" />
        </mxCell>
        <mxCell id="9fyok54g0r0PkPnmByOA-47" value="ออกจาก case" style="whiteSpace=wrap;html=1;" vertex="1" parent="1">
          <mxGeometry x="710" y="1600" width="220" height="110" as="geometry" />
        </mxCell>
        <mxCell id="9fyok54g0r0PkPnmByOA-50" value="" style="edgeStyle=orthogonalEdgeStyle;rounded=0;orthogonalLoop=1;jettySize=auto;html=1;" edge="1" parent="1" source="9fyok54g0r0PkPnmByOA-51" target="9fyok54g0r0PkPnmByOA-53">
          <mxGeometry relative="1" as="geometry" />
        </mxCell>
        <mxCell id="9fyok54g0r0PkPnmByOA-116" style="edgeStyle=orthogonalEdgeStyle;rounded=0;orthogonalLoop=1;jettySize=auto;html=1;entryX=0.5;entryY=0;entryDx=0;entryDy=0;" edge="1" parent="1" source="9fyok54g0r0PkPnmByOA-51" target="9fyok54g0r0PkPnmByOA-56">
          <mxGeometry relative="1" as="geometry" />
        </mxCell>
        <mxCell id="9fyok54g0r0PkPnmByOA-51" value="hex[ i ] = &#39;2&#39;" style="rhombus;whiteSpace=wrap;html=1;fontSize=16;" vertex="1" parent="1">
          <mxGeometry x="1070" y="1360" width="340" height="140" as="geometry" />
        </mxCell>
        <mxCell id="9fyok54g0r0PkPnmByOA-52" value="" style="edgeStyle=orthogonalEdgeStyle;rounded=0;orthogonalLoop=1;jettySize=auto;html=1;" edge="1" parent="1" source="9fyok54g0r0PkPnmByOA-53" target="9fyok54g0r0PkPnmByOA-54">
          <mxGeometry relative="1" as="geometry" />
        </mxCell>
        <mxCell id="9fyok54g0r0PkPnmByOA-53" value="แสดงเลข 0010" style="shape=parallelogram;perimeter=parallelogramPerimeter;whiteSpace=wrap;html=1;fixedSize=1;" vertex="1" parent="1">
          <mxGeometry x="1115" y="1550" width="250" height="80" as="geometry" />
        </mxCell>
        <mxCell id="9fyok54g0r0PkPnmByOA-144" style="edgeStyle=orthogonalEdgeStyle;rounded=0;orthogonalLoop=1;jettySize=auto;html=1;entryX=0.5;entryY=0;entryDx=0;entryDy=0;" edge="1" parent="1" source="9fyok54g0r0PkPnmByOA-54" target="9fyok54g0r0PkPnmByOA-139">
          <mxGeometry relative="1" as="geometry" />
        </mxCell>
        <mxCell id="9fyok54g0r0PkPnmByOA-54" value="ออกจาก case" style="whiteSpace=wrap;html=1;" vertex="1" parent="1">
          <mxGeometry x="1130" y="1700" width="220" height="110" as="geometry" />
        </mxCell>
        <mxCell id="9fyok54g0r0PkPnmByOA-55" value="" style="edgeStyle=orthogonalEdgeStyle;rounded=0;orthogonalLoop=1;jettySize=auto;html=1;" edge="1" parent="1" source="9fyok54g0r0PkPnmByOA-56" target="9fyok54g0r0PkPnmByOA-58">
          <mxGeometry relative="1" as="geometry" />
        </mxCell>
        <mxCell id="9fyok54g0r0PkPnmByOA-117" style="edgeStyle=orthogonalEdgeStyle;rounded=0;orthogonalLoop=1;jettySize=auto;html=1;entryX=0.5;entryY=0;entryDx=0;entryDy=0;" edge="1" parent="1" source="9fyok54g0r0PkPnmByOA-56" target="9fyok54g0r0PkPnmByOA-61">
          <mxGeometry relative="1" as="geometry" />
        </mxCell>
        <mxCell id="9fyok54g0r0PkPnmByOA-56" value="hex[ i ] = &#39;3&#39;" style="rhombus;whiteSpace=wrap;html=1;fontSize=16;" vertex="1" parent="1">
          <mxGeometry x="1500" y="1470" width="340" height="140" as="geometry" />
        </mxCell>
        <mxCell id="9fyok54g0r0PkPnmByOA-57" value="" style="edgeStyle=orthogonalEdgeStyle;rounded=0;orthogonalLoop=1;jettySize=auto;html=1;" edge="1" parent="1" source="9fyok54g0r0PkPnmByOA-58" target="9fyok54g0r0PkPnmByOA-59">
          <mxGeometry relative="1" as="geometry" />
        </mxCell>
        <mxCell id="9fyok54g0r0PkPnmByOA-58" value="แสดงเลข 0011" style="shape=parallelogram;perimeter=parallelogramPerimeter;whiteSpace=wrap;html=1;fixedSize=1;" vertex="1" parent="1">
          <mxGeometry x="1545" y="1660" width="250" height="80" as="geometry" />
        </mxCell>
        <mxCell id="9fyok54g0r0PkPnmByOA-180" style="edgeStyle=orthogonalEdgeStyle;rounded=0;orthogonalLoop=1;jettySize=auto;html=1;entryX=0.5;entryY=0;entryDx=0;entryDy=0;" edge="1" parent="1" source="9fyok54g0r0PkPnmByOA-59" target="9fyok54g0r0PkPnmByOA-141">
          <mxGeometry relative="1" as="geometry" />
        </mxCell>
        <mxCell id="9fyok54g0r0PkPnmByOA-59" value="ออกจาก case" style="whiteSpace=wrap;html=1;" vertex="1" parent="1">
          <mxGeometry x="1560" y="1810" width="220" height="110" as="geometry" />
        </mxCell>
        <mxCell id="9fyok54g0r0PkPnmByOA-60" value="" style="edgeStyle=orthogonalEdgeStyle;rounded=0;orthogonalLoop=1;jettySize=auto;html=1;" edge="1" parent="1" source="9fyok54g0r0PkPnmByOA-61" target="9fyok54g0r0PkPnmByOA-63">
          <mxGeometry relative="1" as="geometry" />
        </mxCell>
        <mxCell id="9fyok54g0r0PkPnmByOA-120" style="edgeStyle=orthogonalEdgeStyle;rounded=0;orthogonalLoop=1;jettySize=auto;html=1;entryX=0.5;entryY=0;entryDx=0;entryDy=0;" edge="1" parent="1" source="9fyok54g0r0PkPnmByOA-61" target="9fyok54g0r0PkPnmByOA-66">
          <mxGeometry relative="1" as="geometry" />
        </mxCell>
        <mxCell id="9fyok54g0r0PkPnmByOA-61" value="hex[ i ] = &#39;4&#39;" style="rhombus;whiteSpace=wrap;html=1;fontSize=16;" vertex="1" parent="1">
          <mxGeometry x="1910" y="1570" width="340" height="140" as="geometry" />
        </mxCell>
        <mxCell id="9fyok54g0r0PkPnmByOA-62" value="" style="edgeStyle=orthogonalEdgeStyle;rounded=0;orthogonalLoop=1;jettySize=auto;html=1;" edge="1" parent="1" source="9fyok54g0r0PkPnmByOA-63" target="9fyok54g0r0PkPnmByOA-64">
          <mxGeometry relative="1" as="geometry" />
        </mxCell>
        <mxCell id="9fyok54g0r0PkPnmByOA-63" value="แสดงเลข 0100" style="shape=parallelogram;perimeter=parallelogramPerimeter;whiteSpace=wrap;html=1;fixedSize=1;" vertex="1" parent="1">
          <mxGeometry x="1955" y="1760" width="250" height="80" as="geometry" />
        </mxCell>
        <mxCell id="9fyok54g0r0PkPnmByOA-179" style="edgeStyle=orthogonalEdgeStyle;rounded=0;orthogonalLoop=1;jettySize=auto;html=1;entryX=0.5;entryY=0;entryDx=0;entryDy=0;" edge="1" parent="1" source="9fyok54g0r0PkPnmByOA-64" target="9fyok54g0r0PkPnmByOA-177">
          <mxGeometry relative="1" as="geometry" />
        </mxCell>
        <mxCell id="9fyok54g0r0PkPnmByOA-64" value="ออกจาก case" style="whiteSpace=wrap;html=1;" vertex="1" parent="1">
          <mxGeometry x="1970" y="1910" width="220" height="110" as="geometry" />
        </mxCell>
        <mxCell id="9fyok54g0r0PkPnmByOA-65" value="" style="edgeStyle=orthogonalEdgeStyle;rounded=0;orthogonalLoop=1;jettySize=auto;html=1;" edge="1" parent="1" source="9fyok54g0r0PkPnmByOA-66" target="9fyok54g0r0PkPnmByOA-68">
          <mxGeometry relative="1" as="geometry" />
        </mxCell>
        <mxCell id="9fyok54g0r0PkPnmByOA-121" style="edgeStyle=orthogonalEdgeStyle;rounded=0;orthogonalLoop=1;jettySize=auto;html=1;entryX=0.5;entryY=0;entryDx=0;entryDy=0;" edge="1" parent="1" source="9fyok54g0r0PkPnmByOA-66" target="9fyok54g0r0PkPnmByOA-71">
          <mxGeometry relative="1" as="geometry" />
        </mxCell>
        <mxCell id="9fyok54g0r0PkPnmByOA-66" value="hex[ i ] = &#39;5&#39;" style="rhombus;whiteSpace=wrap;html=1;fontSize=16;" vertex="1" parent="1">
          <mxGeometry x="2320" y="1670" width="340" height="140" as="geometry" />
        </mxCell>
        <mxCell id="9fyok54g0r0PkPnmByOA-67" value="" style="edgeStyle=orthogonalEdgeStyle;rounded=0;orthogonalLoop=1;jettySize=auto;html=1;" edge="1" parent="1" source="9fyok54g0r0PkPnmByOA-68" target="9fyok54g0r0PkPnmByOA-69">
          <mxGeometry relative="1" as="geometry" />
        </mxCell>
        <mxCell id="9fyok54g0r0PkPnmByOA-68" value="แสดงเลข 0101" style="shape=parallelogram;perimeter=parallelogramPerimeter;whiteSpace=wrap;html=1;fixedSize=1;" vertex="1" parent="1">
          <mxGeometry x="2365" y="1860" width="250" height="80" as="geometry" />
        </mxCell>
        <mxCell id="9fyok54g0r0PkPnmByOA-176" style="edgeStyle=orthogonalEdgeStyle;rounded=0;orthogonalLoop=1;jettySize=auto;html=1;entryX=0.5;entryY=0;entryDx=0;entryDy=0;" edge="1" parent="1" source="9fyok54g0r0PkPnmByOA-69" target="9fyok54g0r0PkPnmByOA-174">
          <mxGeometry relative="1" as="geometry" />
        </mxCell>
        <mxCell id="9fyok54g0r0PkPnmByOA-69" value="ออกจาก case" style="whiteSpace=wrap;html=1;" vertex="1" parent="1">
          <mxGeometry x="2380" y="2010" width="220" height="110" as="geometry" />
        </mxCell>
        <mxCell id="9fyok54g0r0PkPnmByOA-70" value="" style="edgeStyle=orthogonalEdgeStyle;rounded=0;orthogonalLoop=1;jettySize=auto;html=1;" edge="1" parent="1" source="9fyok54g0r0PkPnmByOA-71" target="9fyok54g0r0PkPnmByOA-73">
          <mxGeometry relative="1" as="geometry" />
        </mxCell>
        <mxCell id="9fyok54g0r0PkPnmByOA-122" style="edgeStyle=orthogonalEdgeStyle;rounded=0;orthogonalLoop=1;jettySize=auto;html=1;entryX=0.5;entryY=0;entryDx=0;entryDy=0;" edge="1" parent="1" source="9fyok54g0r0PkPnmByOA-71" target="9fyok54g0r0PkPnmByOA-76">
          <mxGeometry relative="1" as="geometry" />
        </mxCell>
        <mxCell id="9fyok54g0r0PkPnmByOA-71" value="hex[ i ] = &#39;6&#39;" style="rhombus;whiteSpace=wrap;html=1;fontSize=16;" vertex="1" parent="1">
          <mxGeometry x="2670" y="1780" width="340" height="140" as="geometry" />
        </mxCell>
        <mxCell id="9fyok54g0r0PkPnmByOA-72" value="" style="edgeStyle=orthogonalEdgeStyle;rounded=0;orthogonalLoop=1;jettySize=auto;html=1;" edge="1" parent="1" source="9fyok54g0r0PkPnmByOA-73" target="9fyok54g0r0PkPnmByOA-74">
          <mxGeometry relative="1" as="geometry" />
        </mxCell>
        <mxCell id="9fyok54g0r0PkPnmByOA-73" value="แสดงเลข 0110" style="shape=parallelogram;perimeter=parallelogramPerimeter;whiteSpace=wrap;html=1;fixedSize=1;" vertex="1" parent="1">
          <mxGeometry x="2715" y="1970" width="250" height="80" as="geometry" />
        </mxCell>
        <mxCell id="9fyok54g0r0PkPnmByOA-173" style="edgeStyle=orthogonalEdgeStyle;rounded=0;orthogonalLoop=1;jettySize=auto;html=1;entryX=0.5;entryY=0;entryDx=0;entryDy=0;" edge="1" parent="1" source="9fyok54g0r0PkPnmByOA-74" target="9fyok54g0r0PkPnmByOA-171">
          <mxGeometry relative="1" as="geometry" />
        </mxCell>
        <mxCell id="9fyok54g0r0PkPnmByOA-74" value="ออกจาก case" style="whiteSpace=wrap;html=1;" vertex="1" parent="1">
          <mxGeometry x="2730" y="2120" width="220" height="110" as="geometry" />
        </mxCell>
        <mxCell id="9fyok54g0r0PkPnmByOA-75" value="" style="edgeStyle=orthogonalEdgeStyle;rounded=0;orthogonalLoop=1;jettySize=auto;html=1;" edge="1" parent="1" source="9fyok54g0r0PkPnmByOA-76" target="9fyok54g0r0PkPnmByOA-78">
          <mxGeometry relative="1" as="geometry" />
        </mxCell>
        <mxCell id="9fyok54g0r0PkPnmByOA-123" style="edgeStyle=orthogonalEdgeStyle;rounded=0;orthogonalLoop=1;jettySize=auto;html=1;entryX=0.5;entryY=0;entryDx=0;entryDy=0;" edge="1" parent="1" source="9fyok54g0r0PkPnmByOA-76" target="9fyok54g0r0PkPnmByOA-81">
          <mxGeometry relative="1" as="geometry" />
        </mxCell>
        <mxCell id="9fyok54g0r0PkPnmByOA-76" value="hex[ i ] = &#39;7&#39;" style="rhombus;whiteSpace=wrap;html=1;fontSize=16;" vertex="1" parent="1">
          <mxGeometry x="3050" y="1895" width="340" height="140" as="geometry" />
        </mxCell>
        <mxCell id="9fyok54g0r0PkPnmByOA-77" value="" style="edgeStyle=orthogonalEdgeStyle;rounded=0;orthogonalLoop=1;jettySize=auto;html=1;" edge="1" parent="1" source="9fyok54g0r0PkPnmByOA-78" target="9fyok54g0r0PkPnmByOA-79">
          <mxGeometry relative="1" as="geometry" />
        </mxCell>
        <mxCell id="9fyok54g0r0PkPnmByOA-78" value="แสดงเลข 0111" style="shape=parallelogram;perimeter=parallelogramPerimeter;whiteSpace=wrap;html=1;fixedSize=1;" vertex="1" parent="1">
          <mxGeometry x="3095" y="2085" width="250" height="80" as="geometry" />
        </mxCell>
        <mxCell id="9fyok54g0r0PkPnmByOA-170" style="edgeStyle=orthogonalEdgeStyle;rounded=0;orthogonalLoop=1;jettySize=auto;html=1;entryX=0.5;entryY=0;entryDx=0;entryDy=0;" edge="1" parent="1" source="9fyok54g0r0PkPnmByOA-79" target="9fyok54g0r0PkPnmByOA-168">
          <mxGeometry relative="1" as="geometry" />
        </mxCell>
        <mxCell id="9fyok54g0r0PkPnmByOA-79" value="ออกจาก case" style="whiteSpace=wrap;html=1;" vertex="1" parent="1">
          <mxGeometry x="3110" y="2235" width="220" height="110" as="geometry" />
        </mxCell>
        <mxCell id="9fyok54g0r0PkPnmByOA-80" value="" style="edgeStyle=orthogonalEdgeStyle;rounded=0;orthogonalLoop=1;jettySize=auto;html=1;" edge="1" parent="1" source="9fyok54g0r0PkPnmByOA-81" target="9fyok54g0r0PkPnmByOA-83">
          <mxGeometry relative="1" as="geometry" />
        </mxCell>
        <mxCell id="9fyok54g0r0PkPnmByOA-124" style="edgeStyle=orthogonalEdgeStyle;rounded=0;orthogonalLoop=1;jettySize=auto;html=1;entryX=0.5;entryY=0;entryDx=0;entryDy=0;" edge="1" parent="1" source="9fyok54g0r0PkPnmByOA-81" target="9fyok54g0r0PkPnmByOA-86">
          <mxGeometry relative="1" as="geometry" />
        </mxCell>
        <mxCell id="9fyok54g0r0PkPnmByOA-81" value="hex[ i ] = &#39;8&#39;" style="rhombus;whiteSpace=wrap;html=1;fontSize=16;" vertex="1" parent="1">
          <mxGeometry x="3400" y="2000" width="340" height="140" as="geometry" />
        </mxCell>
        <mxCell id="9fyok54g0r0PkPnmByOA-82" value="" style="edgeStyle=orthogonalEdgeStyle;rounded=0;orthogonalLoop=1;jettySize=auto;html=1;" edge="1" parent="1" source="9fyok54g0r0PkPnmByOA-83" target="9fyok54g0r0PkPnmByOA-84">
          <mxGeometry relative="1" as="geometry" />
        </mxCell>
        <mxCell id="9fyok54g0r0PkPnmByOA-83" value="แสดงเลข 1000" style="shape=parallelogram;perimeter=parallelogramPerimeter;whiteSpace=wrap;html=1;fixedSize=1;" vertex="1" parent="1">
          <mxGeometry x="3445" y="2190" width="250" height="80" as="geometry" />
        </mxCell>
        <mxCell id="9fyok54g0r0PkPnmByOA-167" style="edgeStyle=orthogonalEdgeStyle;rounded=0;orthogonalLoop=1;jettySize=auto;html=1;entryX=0.5;entryY=0;entryDx=0;entryDy=0;" edge="1" parent="1" source="9fyok54g0r0PkPnmByOA-84" target="9fyok54g0r0PkPnmByOA-165">
          <mxGeometry relative="1" as="geometry" />
        </mxCell>
        <mxCell id="9fyok54g0r0PkPnmByOA-84" value="ออกจาก case" style="whiteSpace=wrap;html=1;" vertex="1" parent="1">
          <mxGeometry x="3460" y="2340" width="220" height="110" as="geometry" />
        </mxCell>
        <mxCell id="9fyok54g0r0PkPnmByOA-85" value="" style="edgeStyle=orthogonalEdgeStyle;rounded=0;orthogonalLoop=1;jettySize=auto;html=1;" edge="1" parent="1" source="9fyok54g0r0PkPnmByOA-86" target="9fyok54g0r0PkPnmByOA-88">
          <mxGeometry relative="1" as="geometry" />
        </mxCell>
        <mxCell id="9fyok54g0r0PkPnmByOA-125" style="edgeStyle=orthogonalEdgeStyle;rounded=0;orthogonalLoop=1;jettySize=auto;html=1;entryX=0.5;entryY=0;entryDx=0;entryDy=0;" edge="1" parent="1" source="9fyok54g0r0PkPnmByOA-86" target="9fyok54g0r0PkPnmByOA-91">
          <mxGeometry relative="1" as="geometry" />
        </mxCell>
        <mxCell id="9fyok54g0r0PkPnmByOA-86" value="hex[ i ] = &#39;9&#39;" style="rhombus;whiteSpace=wrap;html=1;fontSize=16;" vertex="1" parent="1">
          <mxGeometry x="3780" y="2120" width="340" height="140" as="geometry" />
        </mxCell>
        <mxCell id="9fyok54g0r0PkPnmByOA-87" value="" style="edgeStyle=orthogonalEdgeStyle;rounded=0;orthogonalLoop=1;jettySize=auto;html=1;" edge="1" parent="1" source="9fyok54g0r0PkPnmByOA-88" target="9fyok54g0r0PkPnmByOA-89">
          <mxGeometry relative="1" as="geometry" />
        </mxCell>
        <mxCell id="9fyok54g0r0PkPnmByOA-88" value="แสดงเลข 1001" style="shape=parallelogram;perimeter=parallelogramPerimeter;whiteSpace=wrap;html=1;fixedSize=1;" vertex="1" parent="1">
          <mxGeometry x="3825" y="2310" width="250" height="80" as="geometry" />
        </mxCell>
        <mxCell id="9fyok54g0r0PkPnmByOA-164" style="edgeStyle=orthogonalEdgeStyle;rounded=0;orthogonalLoop=1;jettySize=auto;html=1;entryX=0.5;entryY=0;entryDx=0;entryDy=0;" edge="1" parent="1" source="9fyok54g0r0PkPnmByOA-89" target="9fyok54g0r0PkPnmByOA-162">
          <mxGeometry relative="1" as="geometry" />
        </mxCell>
        <mxCell id="9fyok54g0r0PkPnmByOA-89" value="ออกจาก case" style="whiteSpace=wrap;html=1;" vertex="1" parent="1">
          <mxGeometry x="3840" y="2460" width="220" height="110" as="geometry" />
        </mxCell>
        <mxCell id="9fyok54g0r0PkPnmByOA-90" value="" style="edgeStyle=orthogonalEdgeStyle;rounded=0;orthogonalLoop=1;jettySize=auto;html=1;" edge="1" parent="1" source="9fyok54g0r0PkPnmByOA-91" target="9fyok54g0r0PkPnmByOA-93">
          <mxGeometry relative="1" as="geometry" />
        </mxCell>
        <mxCell id="9fyok54g0r0PkPnmByOA-126" style="edgeStyle=orthogonalEdgeStyle;rounded=0;orthogonalLoop=1;jettySize=auto;html=1;entryX=0.5;entryY=0;entryDx=0;entryDy=0;" edge="1" parent="1" source="9fyok54g0r0PkPnmByOA-91" target="9fyok54g0r0PkPnmByOA-96">
          <mxGeometry relative="1" as="geometry" />
        </mxCell>
        <mxCell id="9fyok54g0r0PkPnmByOA-91" value="hex[ i ] = &#39;A&#39;" style="rhombus;whiteSpace=wrap;html=1;fontSize=16;" vertex="1" parent="1">
          <mxGeometry x="4190" y="2230" width="340" height="140" as="geometry" />
        </mxCell>
        <mxCell id="9fyok54g0r0PkPnmByOA-92" value="" style="edgeStyle=orthogonalEdgeStyle;rounded=0;orthogonalLoop=1;jettySize=auto;html=1;" edge="1" parent="1" source="9fyok54g0r0PkPnmByOA-93" target="9fyok54g0r0PkPnmByOA-94">
          <mxGeometry relative="1" as="geometry" />
        </mxCell>
        <mxCell id="9fyok54g0r0PkPnmByOA-93" value="แสดงเลข 1010" style="shape=parallelogram;perimeter=parallelogramPerimeter;whiteSpace=wrap;html=1;fixedSize=1;" vertex="1" parent="1">
          <mxGeometry x="4235" y="2420" width="250" height="80" as="geometry" />
        </mxCell>
        <mxCell id="9fyok54g0r0PkPnmByOA-161" style="edgeStyle=orthogonalEdgeStyle;rounded=0;orthogonalLoop=1;jettySize=auto;html=1;entryX=0.5;entryY=0;entryDx=0;entryDy=0;" edge="1" parent="1" source="9fyok54g0r0PkPnmByOA-94" target="9fyok54g0r0PkPnmByOA-159">
          <mxGeometry relative="1" as="geometry" />
        </mxCell>
        <mxCell id="9fyok54g0r0PkPnmByOA-94" value="ออกจาก case" style="whiteSpace=wrap;html=1;" vertex="1" parent="1">
          <mxGeometry x="4250" y="2570" width="220" height="110" as="geometry" />
        </mxCell>
        <mxCell id="9fyok54g0r0PkPnmByOA-95" value="" style="edgeStyle=orthogonalEdgeStyle;rounded=0;orthogonalLoop=1;jettySize=auto;html=1;" edge="1" parent="1" source="9fyok54g0r0PkPnmByOA-96" target="9fyok54g0r0PkPnmByOA-98">
          <mxGeometry relative="1" as="geometry" />
        </mxCell>
        <mxCell id="9fyok54g0r0PkPnmByOA-127" style="edgeStyle=orthogonalEdgeStyle;rounded=0;orthogonalLoop=1;jettySize=auto;html=1;entryX=0.5;entryY=0;entryDx=0;entryDy=0;" edge="1" parent="1" source="9fyok54g0r0PkPnmByOA-96" target="9fyok54g0r0PkPnmByOA-101">
          <mxGeometry relative="1" as="geometry" />
        </mxCell>
        <mxCell id="9fyok54g0r0PkPnmByOA-96" value="hex[ i ] = &#39;B&#39;" style="rhombus;whiteSpace=wrap;html=1;fontSize=16;" vertex="1" parent="1">
          <mxGeometry x="4550" y="2360" width="340" height="140" as="geometry" />
        </mxCell>
        <mxCell id="9fyok54g0r0PkPnmByOA-97" value="" style="edgeStyle=orthogonalEdgeStyle;rounded=0;orthogonalLoop=1;jettySize=auto;html=1;" edge="1" parent="1" source="9fyok54g0r0PkPnmByOA-98" target="9fyok54g0r0PkPnmByOA-99">
          <mxGeometry relative="1" as="geometry" />
        </mxCell>
        <mxCell id="9fyok54g0r0PkPnmByOA-98" value="แสดงเลข 1011" style="shape=parallelogram;perimeter=parallelogramPerimeter;whiteSpace=wrap;html=1;fixedSize=1;" vertex="1" parent="1">
          <mxGeometry x="4595" y="2550" width="250" height="80" as="geometry" />
        </mxCell>
        <mxCell id="9fyok54g0r0PkPnmByOA-158" style="edgeStyle=orthogonalEdgeStyle;rounded=0;orthogonalLoop=1;jettySize=auto;html=1;entryX=0.5;entryY=0;entryDx=0;entryDy=0;" edge="1" parent="1" source="9fyok54g0r0PkPnmByOA-99" target="9fyok54g0r0PkPnmByOA-154">
          <mxGeometry relative="1" as="geometry" />
        </mxCell>
        <mxCell id="9fyok54g0r0PkPnmByOA-99" value="ออกจาก case" style="whiteSpace=wrap;html=1;" vertex="1" parent="1">
          <mxGeometry x="4610" y="2700" width="220" height="110" as="geometry" />
        </mxCell>
        <mxCell id="9fyok54g0r0PkPnmByOA-100" value="" style="edgeStyle=orthogonalEdgeStyle;rounded=0;orthogonalLoop=1;jettySize=auto;html=1;" edge="1" parent="1" source="9fyok54g0r0PkPnmByOA-101" target="9fyok54g0r0PkPnmByOA-103">
          <mxGeometry relative="1" as="geometry" />
        </mxCell>
        <mxCell id="9fyok54g0r0PkPnmByOA-128" style="edgeStyle=orthogonalEdgeStyle;rounded=0;orthogonalLoop=1;jettySize=auto;html=1;entryX=0.5;entryY=0;entryDx=0;entryDy=0;" edge="1" parent="1" source="9fyok54g0r0PkPnmByOA-101" target="9fyok54g0r0PkPnmByOA-106">
          <mxGeometry relative="1" as="geometry" />
        </mxCell>
        <mxCell id="9fyok54g0r0PkPnmByOA-101" value="hex[ i ] = &#39;C&#39;" style="rhombus;whiteSpace=wrap;html=1;fontSize=16;" vertex="1" parent="1">
          <mxGeometry x="4930" y="2460" width="340" height="140" as="geometry" />
        </mxCell>
        <mxCell id="9fyok54g0r0PkPnmByOA-102" value="" style="edgeStyle=orthogonalEdgeStyle;rounded=0;orthogonalLoop=1;jettySize=auto;html=1;" edge="1" parent="1" source="9fyok54g0r0PkPnmByOA-103" target="9fyok54g0r0PkPnmByOA-104">
          <mxGeometry relative="1" as="geometry" />
        </mxCell>
        <mxCell id="9fyok54g0r0PkPnmByOA-103" value="แสดงเลข 1100" style="shape=parallelogram;perimeter=parallelogramPerimeter;whiteSpace=wrap;html=1;fixedSize=1;" vertex="1" parent="1">
          <mxGeometry x="4975" y="2650" width="250" height="80" as="geometry" />
        </mxCell>
        <mxCell id="9fyok54g0r0PkPnmByOA-153" style="edgeStyle=orthogonalEdgeStyle;rounded=0;orthogonalLoop=1;jettySize=auto;html=1;entryX=0.5;entryY=0;entryDx=0;entryDy=0;" edge="1" parent="1" source="9fyok54g0r0PkPnmByOA-104" target="9fyok54g0r0PkPnmByOA-151">
          <mxGeometry relative="1" as="geometry" />
        </mxCell>
        <mxCell id="9fyok54g0r0PkPnmByOA-104" value="ออกจาก case" style="whiteSpace=wrap;html=1;" vertex="1" parent="1">
          <mxGeometry x="4990" y="2800" width="220" height="110" as="geometry" />
        </mxCell>
        <mxCell id="9fyok54g0r0PkPnmByOA-105" value="" style="edgeStyle=orthogonalEdgeStyle;rounded=0;orthogonalLoop=1;jettySize=auto;html=1;" edge="1" parent="1" source="9fyok54g0r0PkPnmByOA-106" target="9fyok54g0r0PkPnmByOA-108">
          <mxGeometry relative="1" as="geometry" />
        </mxCell>
        <mxCell id="9fyok54g0r0PkPnmByOA-130" style="edgeStyle=orthogonalEdgeStyle;rounded=0;orthogonalLoop=1;jettySize=auto;html=1;entryX=0.5;entryY=0;entryDx=0;entryDy=0;" edge="1" parent="1" source="9fyok54g0r0PkPnmByOA-106" target="9fyok54g0r0PkPnmByOA-111">
          <mxGeometry relative="1" as="geometry" />
        </mxCell>
        <mxCell id="9fyok54g0r0PkPnmByOA-106" value="hex[ i ] = &#39;D&#39;" style="rhombus;whiteSpace=wrap;html=1;fontSize=16;" vertex="1" parent="1">
          <mxGeometry x="5310" y="2570" width="340" height="140" as="geometry" />
        </mxCell>
        <mxCell id="9fyok54g0r0PkPnmByOA-107" value="" style="edgeStyle=orthogonalEdgeStyle;rounded=0;orthogonalLoop=1;jettySize=auto;html=1;" edge="1" parent="1" source="9fyok54g0r0PkPnmByOA-108" target="9fyok54g0r0PkPnmByOA-109">
          <mxGeometry relative="1" as="geometry" />
        </mxCell>
        <mxCell id="9fyok54g0r0PkPnmByOA-108" value="แสดงเลข 1101" style="shape=parallelogram;perimeter=parallelogramPerimeter;whiteSpace=wrap;html=1;fixedSize=1;" vertex="1" parent="1">
          <mxGeometry x="5355" y="2760" width="250" height="80" as="geometry" />
        </mxCell>
        <mxCell id="9fyok54g0r0PkPnmByOA-148" style="edgeStyle=orthogonalEdgeStyle;rounded=0;orthogonalLoop=1;jettySize=auto;html=1;entryX=0.5;entryY=0;entryDx=0;entryDy=0;" edge="1" parent="1" source="9fyok54g0r0PkPnmByOA-109" target="9fyok54g0r0PkPnmByOA-147">
          <mxGeometry relative="1" as="geometry" />
        </mxCell>
        <mxCell id="9fyok54g0r0PkPnmByOA-109" value="ออกจาก case" style="whiteSpace=wrap;html=1;" vertex="1" parent="1">
          <mxGeometry x="5370" y="2910" width="220" height="110" as="geometry" />
        </mxCell>
        <mxCell id="9fyok54g0r0PkPnmByOA-110" value="" style="edgeStyle=orthogonalEdgeStyle;rounded=0;orthogonalLoop=1;jettySize=auto;html=1;" edge="1" parent="1" source="9fyok54g0r0PkPnmByOA-111" target="9fyok54g0r0PkPnmByOA-113">
          <mxGeometry relative="1" as="geometry" />
        </mxCell>
        <mxCell id="9fyok54g0r0PkPnmByOA-111" value="hex[ i ] = &#39;A&#39;" style="rhombus;whiteSpace=wrap;html=1;fontSize=16;" vertex="1" parent="1">
          <mxGeometry x="5700" y="2670" width="340" height="140" as="geometry" />
        </mxCell>
        <mxCell id="9fyok54g0r0PkPnmByOA-112" value="" style="edgeStyle=orthogonalEdgeStyle;rounded=0;orthogonalLoop=1;jettySize=auto;html=1;" edge="1" parent="1" source="9fyok54g0r0PkPnmByOA-113" target="9fyok54g0r0PkPnmByOA-114">
          <mxGeometry relative="1" as="geometry" />
        </mxCell>
        <mxCell id="9fyok54g0r0PkPnmByOA-113" value="แสดงเลข 1111" style="shape=parallelogram;perimeter=parallelogramPerimeter;whiteSpace=wrap;html=1;fixedSize=1;" vertex="1" parent="1">
          <mxGeometry x="5745" y="2860" width="250" height="80" as="geometry" />
        </mxCell>
        <mxCell id="9fyok54g0r0PkPnmByOA-146" value="" style="edgeStyle=orthogonalEdgeStyle;rounded=0;orthogonalLoop=1;jettySize=auto;html=1;" edge="1" parent="1" source="9fyok54g0r0PkPnmByOA-114" target="9fyok54g0r0PkPnmByOA-145">
          <mxGeometry relative="1" as="geometry" />
        </mxCell>
        <mxCell id="9fyok54g0r0PkPnmByOA-114" value="ออกจาก case" style="whiteSpace=wrap;html=1;" vertex="1" parent="1">
          <mxGeometry x="5760" y="3010" width="220" height="110" as="geometry" />
        </mxCell>
        <mxCell id="9fyok54g0r0PkPnmByOA-131" value="yes" style="text;html=1;align=center;verticalAlign=middle;whiteSpace=wrap;rounded=0;" vertex="1" parent="1">
          <mxGeometry x="340" y="1100" width="60" height="30" as="geometry" />
        </mxCell>
        <mxCell id="9fyok54g0r0PkPnmByOA-190" style="edgeStyle=orthogonalEdgeStyle;rounded=0;orthogonalLoop=1;jettySize=auto;html=1;entryX=0;entryY=0.5;entryDx=0;entryDy=0;" edge="1" parent="1" source="9fyok54g0r0PkPnmByOA-132" target="9fyok54g0r0PkPnmByOA-187">
          <mxGeometry relative="1" as="geometry">
            <mxPoint x="150" y="880" as="targetPoint" />
            <Array as="points">
              <mxPoint x="110" y="3335" />
              <mxPoint x="110" y="885" />
            </Array>
          </mxGeometry>
        </mxCell>
        <mxCell id="9fyok54g0r0PkPnmByOA-132" value="" style="ellipse;whiteSpace=wrap;html=1;aspect=fixed;" vertex="1" parent="1">
          <mxGeometry x="375" y="3310" width="50" height="50" as="geometry" />
        </mxCell>
        <mxCell id="9fyok54g0r0PkPnmByOA-138" style="edgeStyle=orthogonalEdgeStyle;rounded=0;orthogonalLoop=1;jettySize=auto;html=1;entryX=1;entryY=0.5;entryDx=0;entryDy=0;" edge="1" parent="1" source="9fyok54g0r0PkPnmByOA-136" target="9fyok54g0r0PkPnmByOA-132">
          <mxGeometry relative="1" as="geometry" />
        </mxCell>
        <mxCell id="9fyok54g0r0PkPnmByOA-136" value="" style="ellipse;whiteSpace=wrap;html=1;aspect=fixed;" vertex="1" parent="1">
          <mxGeometry x="795" y="3310" width="50" height="50" as="geometry" />
        </mxCell>
        <mxCell id="9fyok54g0r0PkPnmByOA-143" style="edgeStyle=orthogonalEdgeStyle;rounded=0;orthogonalLoop=1;jettySize=auto;html=1;entryX=1;entryY=0.5;entryDx=0;entryDy=0;" edge="1" parent="1" source="9fyok54g0r0PkPnmByOA-139" target="9fyok54g0r0PkPnmByOA-136">
          <mxGeometry relative="1" as="geometry" />
        </mxCell>
        <mxCell id="9fyok54g0r0PkPnmByOA-139" value="" style="ellipse;whiteSpace=wrap;html=1;aspect=fixed;" vertex="1" parent="1">
          <mxGeometry x="1215" y="3310" width="50" height="50" as="geometry" />
        </mxCell>
        <mxCell id="9fyok54g0r0PkPnmByOA-142" style="edgeStyle=orthogonalEdgeStyle;rounded=0;orthogonalLoop=1;jettySize=auto;html=1;entryX=1;entryY=0.5;entryDx=0;entryDy=0;" edge="1" parent="1" source="9fyok54g0r0PkPnmByOA-141" target="9fyok54g0r0PkPnmByOA-139">
          <mxGeometry relative="1" as="geometry" />
        </mxCell>
        <mxCell id="9fyok54g0r0PkPnmByOA-141" value="" style="ellipse;whiteSpace=wrap;html=1;aspect=fixed;" vertex="1" parent="1">
          <mxGeometry x="1645" y="3310" width="50" height="50" as="geometry" />
        </mxCell>
        <mxCell id="9fyok54g0r0PkPnmByOA-149" style="edgeStyle=orthogonalEdgeStyle;rounded=0;orthogonalLoop=1;jettySize=auto;html=1;entryX=1;entryY=0.5;entryDx=0;entryDy=0;" edge="1" parent="1" source="9fyok54g0r0PkPnmByOA-145" target="9fyok54g0r0PkPnmByOA-147">
          <mxGeometry relative="1" as="geometry" />
        </mxCell>
        <mxCell id="9fyok54g0r0PkPnmByOA-145" value="" style="ellipse;whiteSpace=wrap;html=1;aspect=fixed;" vertex="1" parent="1">
          <mxGeometry x="5845" y="3310" width="50" height="50" as="geometry" />
        </mxCell>
        <mxCell id="9fyok54g0r0PkPnmByOA-152" value="" style="edgeStyle=orthogonalEdgeStyle;rounded=0;orthogonalLoop=1;jettySize=auto;html=1;" edge="1" parent="1" source="9fyok54g0r0PkPnmByOA-147" target="9fyok54g0r0PkPnmByOA-151">
          <mxGeometry relative="1" as="geometry" />
        </mxCell>
        <mxCell id="9fyok54g0r0PkPnmByOA-147" value="" style="ellipse;whiteSpace=wrap;html=1;aspect=fixed;" vertex="1" parent="1">
          <mxGeometry x="5455" y="3310" width="50" height="50" as="geometry" />
        </mxCell>
        <mxCell id="9fyok54g0r0PkPnmByOA-155" value="" style="edgeStyle=orthogonalEdgeStyle;rounded=0;orthogonalLoop=1;jettySize=auto;html=1;" edge="1" parent="1" source="9fyok54g0r0PkPnmByOA-151" target="9fyok54g0r0PkPnmByOA-154">
          <mxGeometry relative="1" as="geometry" />
        </mxCell>
        <mxCell id="9fyok54g0r0PkPnmByOA-151" value="" style="ellipse;whiteSpace=wrap;html=1;aspect=fixed;" vertex="1" parent="1">
          <mxGeometry x="5075" y="3310" width="50" height="50" as="geometry" />
        </mxCell>
        <mxCell id="9fyok54g0r0PkPnmByOA-160" value="" style="edgeStyle=orthogonalEdgeStyle;rounded=0;orthogonalLoop=1;jettySize=auto;html=1;" edge="1" parent="1" source="9fyok54g0r0PkPnmByOA-154" target="9fyok54g0r0PkPnmByOA-159">
          <mxGeometry relative="1" as="geometry" />
        </mxCell>
        <mxCell id="9fyok54g0r0PkPnmByOA-154" value="" style="ellipse;whiteSpace=wrap;html=1;aspect=fixed;" vertex="1" parent="1">
          <mxGeometry x="4695" y="3310" width="50" height="50" as="geometry" />
        </mxCell>
        <mxCell id="9fyok54g0r0PkPnmByOA-163" value="" style="edgeStyle=orthogonalEdgeStyle;rounded=0;orthogonalLoop=1;jettySize=auto;html=1;" edge="1" parent="1" source="9fyok54g0r0PkPnmByOA-159" target="9fyok54g0r0PkPnmByOA-162">
          <mxGeometry relative="1" as="geometry" />
        </mxCell>
        <mxCell id="9fyok54g0r0PkPnmByOA-159" value="" style="ellipse;whiteSpace=wrap;html=1;aspect=fixed;" vertex="1" parent="1">
          <mxGeometry x="4335" y="3310" width="50" height="50" as="geometry" />
        </mxCell>
        <mxCell id="9fyok54g0r0PkPnmByOA-166" value="" style="edgeStyle=orthogonalEdgeStyle;rounded=0;orthogonalLoop=1;jettySize=auto;html=1;" edge="1" parent="1" source="9fyok54g0r0PkPnmByOA-162" target="9fyok54g0r0PkPnmByOA-165">
          <mxGeometry relative="1" as="geometry" />
        </mxCell>
        <mxCell id="9fyok54g0r0PkPnmByOA-162" value="" style="ellipse;whiteSpace=wrap;html=1;aspect=fixed;" vertex="1" parent="1">
          <mxGeometry x="3925" y="3310" width="50" height="50" as="geometry" />
        </mxCell>
        <mxCell id="9fyok54g0r0PkPnmByOA-169" value="" style="edgeStyle=orthogonalEdgeStyle;rounded=0;orthogonalLoop=1;jettySize=auto;html=1;" edge="1" parent="1" source="9fyok54g0r0PkPnmByOA-165" target="9fyok54g0r0PkPnmByOA-168">
          <mxGeometry relative="1" as="geometry" />
        </mxCell>
        <mxCell id="9fyok54g0r0PkPnmByOA-165" value="" style="ellipse;whiteSpace=wrap;html=1;aspect=fixed;" vertex="1" parent="1">
          <mxGeometry x="3545" y="3310" width="50" height="50" as="geometry" />
        </mxCell>
        <mxCell id="9fyok54g0r0PkPnmByOA-172" value="" style="edgeStyle=orthogonalEdgeStyle;rounded=0;orthogonalLoop=1;jettySize=auto;html=1;" edge="1" parent="1" source="9fyok54g0r0PkPnmByOA-168" target="9fyok54g0r0PkPnmByOA-171">
          <mxGeometry relative="1" as="geometry" />
        </mxCell>
        <mxCell id="9fyok54g0r0PkPnmByOA-168" value="" style="ellipse;whiteSpace=wrap;html=1;aspect=fixed;" vertex="1" parent="1">
          <mxGeometry x="3195" y="3310" width="50" height="50" as="geometry" />
        </mxCell>
        <mxCell id="9fyok54g0r0PkPnmByOA-175" value="" style="edgeStyle=orthogonalEdgeStyle;rounded=0;orthogonalLoop=1;jettySize=auto;html=1;" edge="1" parent="1" source="9fyok54g0r0PkPnmByOA-171" target="9fyok54g0r0PkPnmByOA-174">
          <mxGeometry relative="1" as="geometry" />
        </mxCell>
        <mxCell id="9fyok54g0r0PkPnmByOA-171" value="" style="ellipse;whiteSpace=wrap;html=1;aspect=fixed;" vertex="1" parent="1">
          <mxGeometry x="2815" y="3310" width="50" height="50" as="geometry" />
        </mxCell>
        <mxCell id="9fyok54g0r0PkPnmByOA-178" value="" style="edgeStyle=orthogonalEdgeStyle;rounded=0;orthogonalLoop=1;jettySize=auto;html=1;" edge="1" parent="1" source="9fyok54g0r0PkPnmByOA-174" target="9fyok54g0r0PkPnmByOA-177">
          <mxGeometry relative="1" as="geometry" />
        </mxCell>
        <mxCell id="9fyok54g0r0PkPnmByOA-174" value="" style="ellipse;whiteSpace=wrap;html=1;aspect=fixed;" vertex="1" parent="1">
          <mxGeometry x="2465" y="3310" width="50" height="50" as="geometry" />
        </mxCell>
        <mxCell id="9fyok54g0r0PkPnmByOA-181" style="edgeStyle=orthogonalEdgeStyle;rounded=0;orthogonalLoop=1;jettySize=auto;html=1;entryX=1;entryY=0.5;entryDx=0;entryDy=0;" edge="1" parent="1" source="9fyok54g0r0PkPnmByOA-177" target="9fyok54g0r0PkPnmByOA-141">
          <mxGeometry relative="1" as="geometry" />
        </mxCell>
        <mxCell id="9fyok54g0r0PkPnmByOA-177" value="" style="ellipse;whiteSpace=wrap;html=1;aspect=fixed;" vertex="1" parent="1">
          <mxGeometry x="2055" y="3310" width="50" height="50" as="geometry" />
        </mxCell>
        <mxCell id="9fyok54g0r0PkPnmByOA-189" value="" style="edgeStyle=orthogonalEdgeStyle;rounded=0;orthogonalLoop=1;jettySize=auto;html=1;" edge="1" parent="1" source="9fyok54g0r0PkPnmByOA-187" target="9fyok54g0r0PkPnmByOA-27">
          <mxGeometry relative="1" as="geometry" />
        </mxCell>
        <mxCell id="9fyok54g0r0PkPnmByOA-187" value="" style="ellipse;whiteSpace=wrap;html=1;aspect=fixed;" vertex="1" parent="1">
          <mxGeometry x="375" y="860" width="50" height="50" as="geometry" />
        </mxCell>
        <mxCell id="9fyok54g0r0PkPnmByOA-192" value="จบ" style="strokeWidth=2;html=1;shape=mxgraph.flowchart.terminator;whiteSpace=wrap;fontSize=16;" vertex="1" parent="1">
          <mxGeometry x="300" y="3670" width="200" height="80" as="geometry" />
        </mxCell>
        <mxCell id="9fyok54g0r0PkPnmByOA-194" style="edgeStyle=orthogonalEdgeStyle;rounded=0;orthogonalLoop=1;jettySize=auto;html=1;entryX=0.5;entryY=0;entryDx=0;entryDy=0;entryPerimeter=0;" edge="1" parent="1" source="9fyok54g0r0PkPnmByOA-27" target="9fyok54g0r0PkPnmByOA-192">
          <mxGeometry relative="1" as="geometry">
            <Array as="points">
              <mxPoint x="6630" y="1020" />
              <mxPoint x="6630" y="3470" />
              <mxPoint x="400" y="3470" />
            </Array>
          </mxGeometry>
        </mxCell>
      </root>
    </mxGraphModel>
  </diagram>
</mxfile>
